<?xml version="1.0" encoding="UTF-8"?><svg id="a" xmlns="http://www.w3.org/2000/svg" viewBox="0 0 322.02 337.03"><defs><style>.b{fill:#fdfefe;}.b,.c,.d{stroke-width:0px;}.c{fill:#0e83c2;}.d{fill:#fac132;}</style></defs><path class="b" d="M230.86,327c9.91,0,18.62-2.65,25.95-7.52,21.99-14.61,25.05-44.3,13-65.55-20.3-35.8-51.07-60.51-87.47-78.39-14.29-7.02-29.54-6.41-43.95.35-22.69,10.64-42.06,26.07-59.82,43.52-11.32,11.13-21.78,23.14-28.06,37.88-8.5,19.94-7.52,38.97,7.25,56.22,10.81,12.63,33.88,17.64,51.65,9.77,5.53-2.45,9.55-2.47,14.01,1.13,1.15.93,2.53,1.59,3.83,2.34,9.74,5.63,19.87,9.96,31.4,10.25,15.7.4,29.27-5.33,41.63-14.38,2.72-1.99,4.74-2.5,7.96-.89,7.05,3.53,14.67,5.28,22.63,5.26ZM226.44,64.2c.58,7.9.57,13.9-1.49,19.63-.95,2.63-2.65,5.95-5.74,5.19-12.51-3.06-21.61,2.45-29.29,11.18-11.64,13.22-13.07,37.6-3.4,52.39,4.45,6.81,10.58,11.43,18.53,13.39,19.07,4.69,36.2-5.97,40.82-26.02,2.46-10.69,2.37-21.38-4.93-30.79-1.99-2.57.26-3.58,2.37-3.96,4.4-.79,6.84-3.7,8.75-7.4,5.02-9.73,4.55-20.11,2.63-30.25-3.01-15.83-10.14-29.79-21.72-41.26-3.02-2.99-6.29-6.09-10.86-3.59-4.82,2.64-2.69,7.03-1.57,10.66,3.29,10.69,5.65,21.51,5.91,30.82ZM141.88,128.59c.03-5.56-.99-10.94-2.93-16.12-5.64-15.08-18.99-25.07-32.52-24.4-8.48.42-9.27-.18-10.57-8.77-.42-2.78-.66-5.62-.7-8.44-.15-13.43,2.48-26.43,6.18-39.26.93-3.23,2.2-6.78-1.49-8.96-3.52-2.08-6.71-.48-9.43,2.15-10.12,9.8-17.49,21.3-21.31,34.92-3.18,11.35-4.71,22.83-1.07,34.38,1.68,5.35,4.1,10.11,10.68,11.14,3.44.54,4.01,2.72,1.27,5.17-1.96,1.75-2.93,4.04-3.54,6.46-2.07,8.2-2.53,16.54-.11,24.66,3.68,12.36,10.91,21.7,24.22,24.63,12.56,2.77,23.44-.43,31.93-10.32,6.7-7.8,9.25-17.14,9.39-27.25ZM70.43,179c-.08-1.48-.14-3.48-.32-5.46-1.57-17.26-16.06-32.34-31.91-33.23-7.41-.42-7.98-.85-9.11-8.19-2.29-14.84-.38-29.52,1.76-44.2.51-3.52,2.57-8.06-2.14-10.28-4.95-2.33-8.07,1.2-10.92,4.63-.53.64-1.03,1.31-1.49,2C4.82,101.51-1.28,120.35.23,141.22c.42,5.82,1.6,11.68,8.66,13.69,2.29.65,2.36,2.36,1.05,4.32-6.28,9.35-6.94,19.77-4.35,30.19,3.27,13.14,10.33,23.72,24.69,26.55,22.6,4.46,40.68-12.17,40.15-36.97ZM293.86,117.84c-.08,6-.25,12.64-2.7,18.99-.83,2.14-1.62,3.64-4.53,3.54-10.73-.39-19.48,4.07-25.98,12.39-9.85,12.61-11.94,26.84-6.91,41.9,3.73,11.15,11.31,18.85,23.06,21.21,12.21,2.45,23.07-.36,31.57-10.17,10.76-12.42,11.89-34.75,3.42-46.65-1.22-1.71-1.7-3.51,1.1-4.12,5.55-1.22,7.05-5.58,8.11-10.25,1.96-8.65.79-17.24-1.05-25.72-3.06-14.14-8.36-27.29-17.79-38.49-2.43-2.88-5.56-4.63-9.23-2.8-3.47,1.73-3.09,5-2.42,8.31,2.08,10.29,3.06,20.72,3.35,31.88ZM146.3,60.19c.06,9.8-.6,19.66,2.18,29.24,2.07,7.12,6.33,10.72,12.07,10.67,5.85-.06,10.67-4.17,12.63-10.87,1.26-4.33,1.83-8.75,1.98-13.27.51-15.16,0-30.28-2.22-45.29-1.28-8.7-3.08-17.34-5.99-25.68-.98-2.81-2.78-4.89-6.14-4.99-3.35-.1-5.19,1.83-6.37,4.62-.58,1.37-1.01,2.81-1.39,4.25-4.52,16.8-5.72,34.05-6.74,51.32Z"/><path class="c" d="M230.86,327c-7.95.02-15.57-1.74-22.63-5.26-3.22-1.61-5.24-1.1-7.96.89-12.36,9.06-25.93,14.78-41.63,14.38-11.52-.29-21.65-4.62-31.4-10.25-1.3-.75-2.68-1.4-3.83-2.34-4.45-3.6-8.48-3.58-14.01-1.13-17.77,7.87-40.84,2.86-51.65-9.77-14.77-17.26-15.75-36.28-7.25-56.22,6.28-14.75,16.73-26.76,28.06-37.88,17.77-17.46,37.14-32.89,59.82-43.52,14.42-6.76,29.66-7.37,43.95-.35,36.4,17.89,67.17,42.59,87.47,78.39,12.05,21.25,8.99,50.94-13,65.55-7.33,4.87-16.05,7.51-25.95,7.52ZM169.21,215.4c-.07,0-.14,0-.22,0,0-4.99.07-9.99-.02-14.98-.07-4.18-2.46-6.34-6.48-6.86-5.8-.75-9.4,2.11-9.51,8.02-.19,9.49.04,18.98-.15,28.47-.11,5.75-6.62,9.53-11.77,7.04-2.25-1.09-4.42-2.33-6.62-3.5-6.32-3.35-12.54-6.93-19-9.97-4.64-2.18-10.42,1.2-12.98,7.17-2.24,5.22,2.6,5.68,5.3,7.18,7.13,3.95,14.54,7.4,21.63,11.41,4.75,2.68,4.69,5.86-.03,8.52-6.38,3.59-12.93,6.87-19.42,10.24-10.64,5.52-21.33,10.93-31.92,16.54-4.73,2.5-6.06,7.14-3.64,11.34,2.46,4.27,6.36,5.22,11.06,2.77,16.23-8.45,32.53-16.75,48.66-25.38,4.67-2.5,8.79-4.93,12.69.88.43.64,1.29,1.16,2.06,1.36,3.69,1,4.16,3.67,4.11,6.95-.11,7.66-.05,15.32.04,22.98.06,5.19,3.03,8.22,7.9,8.29,4.99.08,8.03-2.79,8.17-8,.13-4.82.27-9.67-.03-14.48-.47-7.53-.27-14.14,7.68-18.66,3.07-1.74,4.65-2.39,7.65-.83,17.27,8.98,34.63,17.78,51.94,26.68,5.17,2.66,9.37,1.61,11.77-3.06,2.25-4.4,1.04-8.2-4.36-11.04-16.35-8.58-32.85-16.9-49.26-25.36-2.32-1.2-5.16-2.19-4.92-5.57.22-3.09,2.65-4.33,5.11-5.58,7.41-3.77,14.78-7.64,22.15-11.5,1.79-.94,3.73-1.95,2.99-4.5-2.03-7-9.25-10.28-15.87-6.96-7.43,3.72-14.68,7.81-22.04,11.69-5.98,3.16-12.37-.51-12.61-7.29-.16-4.66-.03-9.32-.03-13.98Z"/><path class="c" d="M226.44,64.2c-.26-9.31-2.62-20.13-5.91-30.82-1.12-3.64-3.25-8.03,1.57-10.66,4.57-2.5,7.84.6,10.86,3.59,11.58,11.46,18.71,25.43,21.72,41.26,1.93,10.13,2.4,20.52-2.63,30.25-1.91,3.7-4.35,6.62-8.75,7.4-2.11.38-4.36,1.38-2.37,3.96,7.3,9.41,7.39,20.1,4.93,30.79-4.62,20.06-21.75,30.72-40.82,26.02-7.95-1.96-14.08-6.58-18.53-13.39-9.67-14.79-8.24-39.17,3.4-52.39,7.68-8.73,16.78-14.24,29.29-11.18,3.09.76,4.79-2.57,5.74-5.19,2.07-5.73,2.07-11.73,1.49-19.63Z"/><path class="c" d="M141.88,128.59c-.14,10.12-2.69,19.45-9.39,27.25-8.5,9.89-19.37,13.09-31.93,10.32-13.31-2.93-20.54-12.28-24.22-24.63-2.42-8.12-1.96-16.46.11-24.66.61-2.42,1.58-4.7,3.54-6.46,2.74-2.45,2.17-4.63-1.27-5.17-6.58-1.03-8.99-5.79-10.68-11.14-3.63-11.54-2.11-23.03,1.07-34.38,3.82-13.62,11.19-25.12,21.31-34.92,2.72-2.64,5.91-4.23,9.43-2.15,3.68,2.18,2.42,5.73,1.49,8.96-3.7,12.83-6.34,25.83-6.18,39.26.03,2.82.27,5.65.7,8.44,1.3,8.59,2.09,9.19,10.57,8.77,13.53-.67,26.89,9.31,32.52,24.4,1.94,5.18,2.96,10.56,2.93,16.12Z"/><path class="c" d="M70.43,179c.52,24.8-17.56,41.43-40.15,36.97-14.36-2.83-21.42-13.41-24.69-26.55-2.59-10.41-1.93-20.84,4.35-30.19,1.32-1.96,1.24-3.66-1.05-4.32-7.06-2.01-8.24-7.88-8.66-13.69-1.51-20.87,4.59-39.71,16.07-56.97.46-.69.96-1.36,1.49-2,2.85-3.43,5.97-6.96,10.92-4.63,4.72,2.22,2.66,6.76,2.14,10.28-2.14,14.69-4.05,29.36-1.76,44.2,1.13,7.34,1.69,7.77,9.11,8.19,15.85.89,30.34,15.97,31.91,33.23.18,1.99.24,3.99.32,5.46Z"/><path class="c" d="M293.86,117.84c-.29-11.16-1.27-21.58-3.35-31.88-.67-3.31-1.05-6.59,2.42-8.31,3.67-1.83,6.81-.08,9.23,2.8,9.44,11.2,14.73,24.36,17.79,38.49,1.84,8.49,3.01,17.07,1.05,25.72-1.06,4.66-2.56,9.03-8.11,10.25-2.8.61-2.32,2.41-1.1,4.12,8.47,11.91,7.34,34.24-3.42,46.65-8.5,9.81-19.36,12.62-31.57,10.17-11.75-2.35-19.33-10.06-23.06-21.21-5.04-15.06-2.95-29.29,6.91-41.9,6.5-8.32,15.24-12.78,25.98-12.39,2.91.11,3.71-1.4,4.53-3.54,2.45-6.35,2.62-12.99,2.7-18.99Z"/><path class="c" d="M146.3,60.18c1.02-17.27,2.22-34.51,6.75-51.31.39-1.44.82-2.88,1.39-4.25,1.18-2.79,3.02-4.72,6.37-4.62,3.36.1,5.16,2.18,6.14,4.99,2.91,8.34,4.71,16.97,5.99,25.68,2.21,15.01,2.74,30.13,2.22,45.29-.15,4.51-.72,8.94-1.98,13.27-1.96,6.7-6.78,10.82-12.63,10.87-5.74.06-10-3.54-12.07-10.67-2.79-9.57-2.12-19.44-2.18-29.24Z"/><path class="d" d="M169.21,215.4c0,4.66-.13,9.33.03,13.98.23,6.79,6.62,10.45,12.61,7.29,7.35-3.88,14.6-7.97,22.04-11.69,6.62-3.32,13.85-.04,15.87,6.96.74,2.55-1.21,3.56-2.99,4.5-7.37,3.86-14.74,7.72-22.15,11.5-2.45,1.25-4.89,2.49-5.11,5.58-.24,3.38,2.6,4.38,4.92,5.57,16.42,8.47,32.91,16.78,49.26,25.36,5.41,2.84,6.62,6.64,4.36,11.04-2.4,4.67-6.59,5.72-11.77,3.06-17.31-8.9-34.67-17.7-51.94-26.68-3-1.56-4.59-.91-7.65.83-7.95,4.52-8.15,11.14-7.68,18.66.3,4.81.16,9.66.03,14.48-.14,5.2-3.18,8.07-8.17,8-4.87-.07-7.84-3.1-7.9-8.29-.09-7.66-.15-15.32-.04-22.98.05-3.28-.42-5.95-4.11-6.95-.76-.21-1.63-.73-2.06-1.36-3.9-5.81-8.01-3.38-12.69-.88-16.13,8.62-32.43,16.93-48.66,25.38-4.7,2.45-8.59,1.5-11.06-2.77-2.42-4.2-1.09-8.83,3.64-11.34,10.59-5.61,21.29-11.02,31.92-16.54,6.5-3.37,13.05-6.65,19.42-10.24,4.72-2.66,4.78-5.83.03-8.52-7.1-4.01-14.5-7.46-21.63-11.41-2.7-1.5-7.54-1.95-5.3-7.18,2.56-5.97,8.34-9.36,12.98-7.17,6.47,3.04,12.68,6.62,19,9.97,2.21,1.17,4.38,2.41,6.62,3.5,5.15,2.49,11.66-1.29,11.77-7.04.19-9.49-.04-18.98.15-28.47.12-5.9,3.72-8.77,9.51-8.02,4.02.52,6.41,2.69,6.48,6.86.09,4.99.02,9.99.02,14.98.07,0,.14,0,.22,0ZM169.51,256.2c.09-4.09-3.6-7.92-7.86-8.14-4.6-.24-8.53,3.29-8.65,7.76-.12,4.53,3.5,8,8.32,8,4.63,0,8.09-3.22,8.18-7.61Z"/><path class="c" d="M169.51,256.2c-.1,4.39-3.56,7.61-8.18,7.61-4.83,0-8.44-3.47-8.32-8,.11-4.47,4.05-8,8.65-7.76,4.26.22,7.95,4.05,7.86,8.14Z"/></svg>